<?xml version="1.0" encoding="UTF-8" standalone="no"?>
<svg width="320px" height="183px" viewBox="0 0 320 183" version="1.1" xmlns="http://www.w3.org/2000/svg" xmlns:xlink="http://www.w3.org/1999/xlink">
    <!-- Generator: Sketch 42 (36781) - http://www.bohemiancoding.com/sketch -->
    <title>Artboard 3</title>
    <desc>Created with Sketch.</desc>
    <defs>
        <path d="M151.580837,50.583128 L8.7427084,66.7957858 C6.84295806,67.0122616 5.126831,65.6500759 4.90971668,63.7536095 L0.02579924,20.9719981 C-0.191315085,19.0766831 1.17488835,17.3644514 3.07463869,17.1491271 L145.912767,0.937620692 C147.812517,0.721144863 149.529799,2.08333053 149.745759,3.9786455 L154.630831,46.7614084 C154.84679,48.6555719 153.481742,50.3678036 151.580837,50.583128" id="path-1"></path>
        <filter x="-50%" y="-50%" width="200%" height="200%" filterUnits="objectBoundingBox" id="filter-2">
            <feOffset dx="0" dy="1" in="SourceAlpha" result="shadowOffsetOuter1"></feOffset>
            <feGaussianBlur stdDeviation="2" in="shadowOffsetOuter1" result="shadowBlurOuter1"></feGaussianBlur>
            <feColorMatrix values="0 0 0 0 0   0 0 0 0 0   0 0 0 0 0  0 0 0 0.03 0" type="matrix" in="shadowBlurOuter1"></feColorMatrix>
        </filter>
        <path d="M157.077272,52.0270868 L9.15889912,69.4683601 C7.25799392,69.6928962 5.53609255,68.3387708 5.31204904,66.4446073 L0.0377877642,21.9737935 C-0.187410604,20.07963 1.17070879,18.3627925 3.07161399,18.1382564 L150.989987,0.696983081 C152.889737,0.473598449 154.611638,1.82657238 154.836837,3.72188735 L160.111098,48.1903982 C160.336296,50.0845617 158.978177,51.8037022 157.077272,52.0270868" id="path-3"></path>
        <filter x="-50%" y="-50%" width="200%" height="200%" filterUnits="objectBoundingBox" id="filter-4">
            <feOffset dx="0" dy="1" in="SourceAlpha" result="shadowOffsetOuter1"></feOffset>
            <feGaussianBlur stdDeviation="1" in="shadowOffsetOuter1" result="shadowBlurOuter1"></feGaussianBlur>
            <feColorMatrix values="0 0 0 0 0   0 0 0 0 0   0 0 0 0 0  0 0 0 0.12 0" type="matrix" in="shadowBlurOuter1"></feColorMatrix>
        </filter>
        <polygon id="path-5" points="121.422662 163.373041 0.554655593 157.668673 9.2415383 0.606247468 130.10839 6.31061585"></polygon>
        <filter x="-50%" y="-50%" width="200%" height="200%" filterUnits="objectBoundingBox" id="filter-6">
            <feOffset dx="0" dy="1" in="SourceAlpha" result="shadowOffsetOuter1"></feOffset>
            <feGaussianBlur stdDeviation="1" in="shadowOffsetOuter1" result="shadowBlurOuter1"></feGaussianBlur>
            <feColorMatrix values="0 0 0 0 0   0 0 0 0 0   0 0 0 0 0  0 0 0 0.2 0" type="matrix" in="shadowBlurOuter1"></feColorMatrix>
        </filter>
        <polygon id="path-7" points="127.003078 170.29428 6.1939692 163.482201 16.3290506 6.50498351 137.138159 13.3182148"></polygon>
        <filter x="-50%" y="-50%" width="200%" height="200%" filterUnits="objectBoundingBox" id="filter-8">
            <feOffset dx="0" dy="0" in="SourceAlpha" result="shadowOffsetOuter1"></feOffset>
            <feGaussianBlur stdDeviation="1" in="shadowOffsetOuter1" result="shadowBlurOuter1"></feGaussianBlur>
            <feColorMatrix values="0 0 0 0 0   0 0 0 0 0   0 0 0 0 0  0 0 0 0.1 0" type="matrix" in="shadowBlurOuter1"></feColorMatrix>
        </filter>
        <polygon id="path-9" points="125.23348 163.358418 4.20841251 163.25824 4.34006694 5.95746087 125.36398 6.05763852"></polygon>
        <filter x="-50%" y="-50%" width="200%" height="200%" filterUnits="objectBoundingBox" id="filter-10">
            <feOffset dx="0" dy="1" in="SourceAlpha" result="shadowOffsetOuter1"></feOffset>
            <feGaussianBlur stdDeviation="2" in="shadowOffsetOuter1" result="shadowBlurOuter1"></feGaussianBlur>
            <feColorMatrix values="0 0 0 0 0   0 0 0 0 0   0 0 0 0 0  0 0 0 0.11 0" type="matrix" in="shadowBlurOuter1"></feColorMatrix>
        </filter>
        <path d="M189.193008,122.763737 L24.8363094,98.6117133 C22.9434882,98.3330582 21.635028,96.5782223 21.91335,94.6909676 L29.2952371,44.7529876 C29.574714,42.8657329 31.3358808,41.5611206 33.2275471,41.8397757 L197.5854,65.9906482 C199.477067,66.2693033 200.785527,68.0252907 200.507205,69.9125454 L193.125318,119.850525 C192.846996,121.736629 191.085829,123.042392 189.193008,122.763737" id="path-11"></path>
        <filter x="-50%" y="-50%" width="200%" height="200%" filterUnits="objectBoundingBox" id="filter-12">
            <feOffset dx="0" dy="1" in="SourceAlpha" result="shadowOffsetOuter1"></feOffset>
            <feGaussianBlur stdDeviation="3" in="shadowOffsetOuter1" result="shadowBlurOuter1"></feGaussianBlur>
            <feColorMatrix values="0 0 0 0 0   0 0 0 0 0   0 0 0 0 0  0 0 0 0.18 0" type="matrix" in="shadowBlurOuter1"></feColorMatrix>
        </filter>
        <path d="M56.0767,83.1768 L16.3057,77.3148 C16.3057,77.3148 -2.7453,61.2398 1.6347,37.3328 C5.6347,15.4998 20.9677,7.3118 20.9677,7.3118 L66.2727,13.9888 C67.9127,14.2308 69.0457,15.7548 68.8047,17.3948 L59.4817,80.6458 C59.2397,82.2848 57.7157,83.4178 56.0767,83.1768" id="path-13"></path>
        <filter x="-50%" y="-50%" width="200%" height="200%" filterUnits="objectBoundingBox" id="filter-14">
            <feOffset dx="0" dy="1" in="SourceAlpha" result="shadowOffsetOuter1"></feOffset>
            <feGaussianBlur stdDeviation="3" in="shadowOffsetOuter1" result="shadowBlurOuter1"></feGaussianBlur>
            <feColorMatrix values="0 0 0 0 0   0 0 0 0 0   0 0 0 0 0  0 0 0 0.2 0" type="matrix" in="shadowBlurOuter1"></feColorMatrix>
        </filter>
    </defs>
    <g id="pattern-card" stroke="none" stroke-width="1" fill="none" fill-rule="evenodd">
        <g id="Artboard-3">
            <g id="Group-12" transform="translate(0.000000, 4.000000)">
                <g id="Page-1">
                    <g id="Group-85" transform="translate(0.000000, 0.883175)">
                        <g id="Group-7" transform="translate(83.715250, 110.626781) rotate(15.000000) translate(-83.715250, -110.626781) translate(6.215250, 77.126781)">
                            <g id="Fill-2">
                                <use fill="black" fill-opacity="1" filter="url(#filter-2)" xlink:href="#path-1"></use>
                                <use fill="#FFFFFF" fill-rule="evenodd" xlink:href="#path-1"></use>
                            </g>
                            <path d="M86.5791176,23.4909477 L15.0595804,31.6087913 C13.9705442,31.7319982 12.9854457,30.9513035 12.8618753,29.8643185 L12.8341586,29.6202074 C12.7094333,28.5343739 13.4924307,27.5521724 14.5826218,27.4289654 L86.102159,19.3111218 C87.1923501,19.1879148 88.1762938,19.9674581 88.301019,21.0555946 L88.3287357,21.2985542 C88.4523061,22.3855392 87.6693087,23.3677407 86.5791176,23.4909477" id="Fill-4" fill="#EFEFEF"></path>
                            <path d="M56.8786864,35.2946377 L16.0103794,39.9327475 C14.9201884,40.0571059 13.9350899,39.2764112 13.8115195,38.1894262 L13.7849576,37.9453151 C13.6602324,36.8571786 14.4432298,35.8772801 15.5334208,35.7517701 L56.4017279,31.1136604 C57.4907641,30.9904534 58.4758626,31.7711481 58.599433,32.8592846 L58.6283045,33.1022442 C58.7518749,34.1892292 57.9688775,35.1714307 56.8786864,35.2946377" id="Fill-6" fill="#EFEFEF"></path>
                            <path d="M132.813151,26.9207078 C132.813151,26.9207078 133.757829,35.1203056 131.421541,39.0295366 C129.084097,42.9364647 126.802087,45.1599479 124.199025,45.4558749 C121.595963,45.751802 117.609374,42.5046645 116.449891,41.3359254 C115.291563,40.1660347 112.912545,36.8083564 112.052171,30.8759975 C111.176785,24.8296434 116.315927,17.4694652 124.02926,19.5870134 C131.740283,21.70341 132.813151,26.9207078 132.813151,26.9207078" id="Fill-8" fill="#9C785E"></path>
                            <path d="M113.392506,36.2054482 C113.392506,36.2054482 111.053907,30.8384597 114.387998,30.2558173 C123.579556,28.6518235 128.127408,22.9923624 128.127408,22.9923624 C128.127408,22.9923624 132.067802,28.1682073 132.691429,28.5309195 L132.728384,34.0890515 C132.728384,34.0890515 136.046307,30.8039157 134.099207,24.7794394 C132.150952,18.7572661 128.860747,17.3467188 127.327088,16.6535356 C127.327088,16.6535356 126.602989,11.6861062 120.627725,12.2963838 C114.384533,12.9354481 115.128265,18.4717023 115.128265,18.4717023 C115.128265,18.4717023 109.080246,22.3671157 110.117313,28.0599694 C110.117313,28.0599694 107.923073,34.1374132 113.392506,36.2054482" id="Fill-10" fill="#333333"></path>
                        </g>
                        <g id="Group-9" transform="translate(11.600049, 15.786679)">
                            <g id="Fill-13">
                                <use fill="black" fill-opacity="1" filter="url(#filter-4)" xlink:href="#path-3"></use>
                                <use fill="#FFFFFF" fill-rule="evenodd" xlink:href="#path-3"></use>
                            </g>
                            <path d="M89.5967537,24.3086235 L15.6531581,33.027533 C14.5248566,33.1599517 13.5028024,32.3573791 13.3699931,31.2335471 L13.3399667,30.9813758 C13.2071574,29.8575439 14.0132521,28.8384954 15.1392439,28.7049252 L89.0851492,19.9860158 C90.2111411,19.853597 91.2331952,20.6573211 91.3671594,21.7811531 L91.3971858,22.0321729 C91.5299951,23.1571564 90.7250553,24.1762048 89.5967537,24.3086235" id="Fill-15" fill="#EFEFEF"></path>
                            <path d="M77.760443,34.4312866 L16.672787,41.6348653 C15.5456403,41.767284 14.5235862,40.9647114 14.3907769,39.8397279 L14.3619053,39.5887081 C14.2267863,38.4648761 15.0340358,37.4446762 16.1600277,37.3122575 L77.2488385,30.1086788 C78.3748303,29.9762601 79.3980393,30.7799842 79.5308486,31.9038162 L79.560875,32.154836 C79.6936843,33.2798194 78.8887445,34.2988679 77.760443,34.4312866" id="Fill-17" fill="#EFEFEF"></path>
                            <path d="M137.576594,30.1132847 C137.576594,30.1132847 138.341114,29.9658969 138.851563,30.1743125 C139.152983,30.296368 139.715401,30.6107185 139.753512,31.435169 C139.823958,32.9182588 139.621857,34.5544936 139.509836,34.838906 C139.189938,35.6460845 138.378069,35.6034802 137.701319,35.6829314" id="Fill-19" fill="#FCDCB7"></path>
                            <path d="M115.432203,32.8086391 C115.432203,32.8086391 114.65498,32.8431831 114.206893,33.1644424 C113.941275,33.3544345 113.470091,33.7896891 113.624842,34.6014735 C113.903164,36.0580794 114.482906,37.6033484 114.658445,37.8532168 C115.157346,38.563672 116.465806,38.2711994 117.141401,38.1917481" id="Fill-21" fill="#FCDCB7"></path>
                            <path d="M124.485062,14.722429 C128.568659,14.2399643 136.405563,16.1663688 137.433391,24.8357652 C137.769456,27.6660715 137.861846,32.9628205 137.861846,32.9628205 C137.861846,32.9628205 137.804102,38.2215711 136.996853,39.6839344 C136.078736,41.3478045 134.366074,43.5839538 132.980238,45.3353353 C132.11178,46.433835 129.7062,47.1569564 128.306505,47.3227677 C126.87332,47.4908819 124.749526,47.4701555 123.647786,46.6042522 C121.892394,45.223643 119.402508,43.3617206 118.182973,41.9016602 C116.599655,40.0074967 115.173399,33.2046286 115.770463,35.5674393 C115.770463,35.5674393 114.620219,30.3950487 114.285309,27.5647424 C113.256325,18.8953461 120.426872,15.2002879 124.510469,14.7189746 L124.485062,14.722429 Z" id="Fill-23" fill="#FCDCB7"></path>
                            <path d="M115.546189,35.4039309 C115.546189,35.4039309 115.659365,30.1474833 117.530244,27.5486219 C119.401123,24.948609 118.734766,24.7897065 118.734766,24.7897065 C118.734766,24.7897065 121.616151,28.3108931 125.898384,29.2527933 C125.898384,29.2527933 124.341628,28.1036291 124.321996,27.6384363 C124.321996,27.6384363 129.152789,30.4249869 133.423474,28.8463254 C137.695314,27.2676639 139.63202,24.0113147 139.63202,24.0113147 C139.63202,24.0113147 138.798209,24.3268167 138.228861,24.2565772 L138.762408,23.4873971 L137.996734,23.2398317 C137.996734,23.2398317 137.688385,18.0179281 133.739907,16.0362531 C129.790274,14.0522751 127.921705,12.669363 124.998746,13.0148032 C121.348222,13.4443004 117.186095,14.862908 116.6768,18.4336077 C116.6768,18.4336077 112.373779,19.264967 112.428057,25.0533925 C112.482336,30.8395151 115.519627,34.7510491 115.546189,35.4039309" id="Fill-25" fill="#525252"></path>
                            <path d="M137.782968,32.2744735 C137.782968,32.2744735 138.693001,27.1020829 137.374147,23.1214609 L136.421384,23.6557416 C136.421384,23.6557416 138.056671,30.3008587 137.782968,32.2744735" id="Fill-27" fill="#525252"></path>
                        </g>
                        <g id="Group-11" transform="translate(179.200000, 0.866667)">
                            <g id="Fill-30">
                                <use fill="black" fill-opacity="1" filter="url(#filter-6)" xlink:href="#path-5"></use>
                                <use fill="#FFFFFF" fill-rule="evenodd" xlink:href="#path-5"></use>
                            </g>
                            <g id="Fill-33" transform="translate(71.666064, 88.399632) rotate(-2.000000) translate(-71.666064, -88.399632) ">
                                <use fill="black" fill-opacity="1" filter="url(#filter-8)" xlink:href="#path-7"></use>
                                <use fill="#FFFFFF" fill-rule="evenodd" xlink:href="#path-7"></use>
                            </g>
                            <g id="Fill-36">
                                <use fill="black" fill-opacity="1" filter="url(#filter-10)" xlink:href="#path-9"></use>
                                <use fill="#FFFFFF" fill-rule="evenodd" xlink:href="#path-9"></use>
                            </g>
                            <path d="M108.486921,113.282032 L21.0683792,113.209489 C20.1317849,113.208338 19.3741945,112.450672 19.3753494,111.517984 C19.3765043,110.584144 20.1352495,109.828782 21.0718438,109.829933 L108.490386,109.902475 C109.425825,109.902475 110.184571,110.661292 110.183416,111.593981 C110.182261,112.526669 109.423516,113.282032 108.486921,113.282032" id="Fill-38" fill="#EFEFEF"></path>
                            <path d="M108.494774,104.760714 L21.0762323,104.688171 C20.139638,104.68702 19.3820476,103.929355 19.3820476,102.996666 C19.3832025,102.062826 20.1419477,101.307464 21.078542,101.308615 L108.497084,101.381158 C109.432523,101.381158 110.191269,102.139975 110.190114,103.071512 C110.190114,104.005351 109.430214,104.760714 108.494774,104.760714" id="Fill-40" fill="#EFEFEF"></path>
                            <path d="M108.501588,95.7063821 L21.083046,95.6338396 C20.1464517,95.6326882 19.3888613,94.8750228 19.3900162,93.9423343 C19.391171,93.0084945 20.1499163,92.253132 21.0865105,92.2542835 L108.505053,92.3268259 C109.440492,92.3268259 110.199237,93.0856428 110.198082,94.0183312 C110.196928,94.9510196 109.438182,95.7063821 108.501588,95.7063821" id="Fill-42" fill="#EFEFEF"></path>
                            <path d="M108.509441,87.1850644 L21.090899,87.1125219 C20.1543048,87.1113705 19.3967144,86.3537051 19.3967144,85.4210167 C19.3978692,84.4871768 20.1566145,83.7318143 21.0932088,83.7329658 L108.511751,83.8055082 C109.44719,83.8055082 110.205935,84.5643251 110.204781,85.495862 C110.204781,86.4297019 109.44488,87.1850644 108.509441,87.1850644" id="Fill-44" fill="#EFEFEF"></path>
                            <path d="M54.8026329,68.8515192 L21.1060277,68.8238839 C20.1705884,68.8238839 19.4118431,68.0650671 19.4129979,67.1335301 C19.4141528,66.1996903 20.1740529,65.4443278 21.1094923,65.4443278 L54.8049426,65.471963 C55.740382,65.4731145 56.4991272,66.2307799 56.4979724,67.1634683 C56.4979724,68.0973082 55.7380722,68.8526706 54.8026329,68.8515192" id="Fill-46" fill="#EFEFEF"></path>
                            <path d="M54.8094465,60.3302015 L21.1128414,60.3025663 C20.1785569,60.3025663 19.4186568,59.5437494 19.4198116,58.611061 C19.4209665,57.6783726 20.1808666,56.9230101 21.116306,56.9230101 L54.8117563,56.9506453 C55.7471956,56.9517968 56.5059409,57.7094622 56.5059409,58.6421506 C56.5047861,59.5759905 55.7460408,60.3313529 54.8094465,60.3302015" id="Fill-48" fill="#EFEFEF"></path>
                            <path d="M54.8161448,52.0754484 L21.1206945,52.0478132 C20.1852551,52.0466618 19.4265099,51.2889964 19.4265099,50.3563079 C19.4276647,49.4224681 20.1875648,48.6671056 21.1230042,48.6682571 L54.8196093,48.6958923 C55.7538939,48.6958923 56.513794,49.4547092 56.5126391,50.3873976 C56.5114843,51.320086 55.752739,52.0765999 54.8161448,52.0754484" id="Fill-50" fill="#EFEFEF"></path>
                            <path d="M42.7950558,43.5439978 L21.1275082,43.5255744 C20.1920688,43.5244229 19.4333235,42.767909 19.4344784,41.8352206 C19.4344784,40.9013807 20.1955334,40.1460182 21.1298179,40.1471697 L42.7985204,40.1644417 C43.7339598,40.1644417 44.4927051,40.9232586 44.4915502,41.8547955 C44.4903954,42.7886354 43.7316501,43.5439978 42.7950558,43.5439978" id="Fill-52" fill="#EFEFEF"></path>
                            <path d="M53.8981438,121.562693 L21.0607571,121.536209 C20.1253177,121.535057 19.3677273,120.777392 19.3688822,119.844704 C19.3688822,118.910864 20.1287823,118.155501 21.0642217,118.156653 L53.9016084,118.183136 C54.8370478,118.184288 55.5957931,118.941953 55.5946382,119.874642 C55.5934833,120.808482 54.8347381,121.563844 53.8981438,121.562693" id="Fill-54" fill="#EFEFEF"></path>
                            <path d="M108.460937,137.068119 L75.6235501,137.041636 C74.6881107,137.040484 73.9305203,136.282819 73.9316752,135.35013 C73.9328301,134.41629 74.6915753,133.660928 75.6270147,133.662079 L108.464401,133.688563 C109.399841,133.689715 110.158586,134.44738 110.157431,135.380068 C110.157431,136.313908 109.397531,137.069271 108.460937,137.068119" id="Fill-56" fill="#EFEFEF"></path>
                            <polygon id="Fill-58" fill="#DDECF2" points="110.098533 69.6657216 67.7254391 69.407793 67.904443 40.1213768 110.277537 40.378154"></polygon>
                            <polygon id="Fill-60" fill="#8AB98E" points="82.2317941 49.491441 67.7671297 69.4820626 96.4504727 69.6582371"></polygon>
                            <polygon id="Fill-62" fill="#8AB98E" points="97.3825629 55.5388314 87.2082161 69.6017 107.38368 69.7237555"></polygon>
                            <path d="M107.18539,50.0693623 C107.173842,51.9163157 105.664435,53.4040113 103.812034,53.3924966 C101.960788,53.3809819 100.468704,51.8748629 100.479098,50.029061 C100.490647,48.1821076 102.001208,46.694412 103.852454,46.7059267 C105.704855,46.7174414 107.196939,48.222409 107.18539,50.0693623" id="Fill-64" fill="#FCDB5E"></path>
                        </g>
                        <g id="Fill-67">
                            <use fill="black" fill-opacity="1" filter="url(#filter-12)" xlink:href="#path-11"></use>
                            <use fill="#FFFFFF" fill-rule="evenodd" xlink:href="#path-11"></use>
                        </g>
                        <path d="M124.757518,73.5362126 L42.5531847,61.457322 C41.4225734,61.2903592 40.6407309,60.2413726 40.8081861,59.1152377 L40.9098141,58.4162971 C41.0772693,57.2901622 42.1293498,56.510619 43.2599611,56.6764302 L125.464295,68.7564724 C126.596061,68.9222837 127.376749,69.9701188 127.210448,71.0985566 L127.106511,71.7963457 C126.94021,72.9236321 125.88813,73.7031754 124.757518,73.5362126" id="Fill-69" fill="#EFEFEF"></path>
                        <path d="M88.3004433,77.9048791 L41.1462146,70.9753496 C40.0144484,70.8095384 39.2337608,69.7617032 39.4000611,68.6332654 L39.5039988,67.9366278 C39.6702991,66.8081899 40.7223797,66.0297981 41.8518362,66.1956094 L89.0072197,73.1251388 C90.137831,73.2909501 90.9196735,74.3387852 90.7522183,75.4672231 L90.6494355,76.1650122 C90.4831351,77.2922986 89.4310546,78.0718418 88.3004433,77.9048791" id="Fill-71" fill="#EFEFEF"></path>
                    </g>
                </g>
            </g>
            <g id="Page-1" transform="translate(137.000000, 54.000000)">
                <path d="M14.0386,12.8828 C-3.1384,30.0598 -3.1384,57.9088 14.0386,75.0858 C31.2156,92.2628 59.0646,92.2628 76.2416,75.0858 C93.4186,57.9088 93.4186,30.0598 76.2416,12.8828 C59.0646,-4.2942 31.2156,-4.2942 14.0386,12.8828" id="Fill-1" fill="#FFFFFF"></path>
                <path d="M88.9713,46.9082 L46.2543,46.6132 C45.4453,46.6072 44.7923,45.9462 44.7973,45.1362 L44.8103,43.3802 C44.8163,42.5692 45.4773,41.9172 46.2873,41.9222 L88.9613,42.2172 L88.9713,46.9082 Z" id="Fill-3" fill="#EFEFEF"></path>
                <path d="M87.8834,33.8565 L46.3364,33.5695 C45.5264,33.5635 44.8734,32.9025 44.8794,32.0915 L44.8924,30.3355 C44.8974,29.5255 45.5594,28.8735 46.3684,28.8775 L86.3814,29.1545 L87.8834,33.8565 Z" id="Fill-5" fill="#EFEFEF"></path>
                <path d="M81.0455,18.8096 L46.4235,18.5706 C45.6125,18.5656 44.9605,17.9036 44.9665,17.0926 L44.9785,15.3366 C44.9835,14.5266 45.6465,13.8736 46.4555,13.8796 L77.1445,14.0916 L81.0455,18.8096 Z" id="Fill-7" fill="#EFEFEF"></path>
                <path d="M85.7173,60.875 L46.1753,60.602 C45.3643,60.596 44.7123,59.935 44.7183,59.124 L44.7303,57.368 C44.7363,56.558 45.3973,55.905 46.2073,55.911 L87.4703,56.196 L85.7173,60.875 Z" id="Fill-9" fill="#EFEFEF"></path>
                <g id="Fill-12">
                    <use fill="black" fill-opacity="1" filter="url(#filter-14)" xlink:href="#path-13"></use>
                    <use fill="#FFFFFF" fill-rule="evenodd" xlink:href="#path-13"></use>
                </g>
                <path d="M15.982,39.1973 L37.984,38.8403 L38.049,42.2903 C38.049,42.2903 41.913,43.7863 46.607,42.8853 C46.607,42.8853 45.037,57.8373 36.657,63.1453 C36.657,63.1453 37.928,63.4603 40.805,62.0303 C40.805,62.0303 49.741,57.2393 50.644,43.5233 C51.547,29.8063 42.897,23.7153 37.503,24.1243 C37.503,24.1243 34.867,21.5853 28.5,21.5933 C15.177,21.6093 2.374,42.2443 16.47,58.2713 C17.31,59.2263 19.143,60.5663 19.663,60.3943 C19.663,60.3943 13.928,53.9233 15.982,39.1973" id="Fill-14" fill="#A2793E"></path>
                <path d="M46.5074,43.5596 C46.5074,43.5596 44.5654,56.8366 39.7884,61.4996 C35.0134,66.1636 31.1394,67.1636 27.3474,66.6046 C23.5564,66.0456 18.9524,61.2416 17.7544,59.1476 C16.5564,57.0536 14.6484,50.1036 15.6674,41.3706 C16.7074,32.4666 26.7454,23.9616 36.8524,29.8606 C46.9584,35.7586 46.5074,43.5596 46.5074,43.5596" id="Fill-16" fill="#FCDCB7"></path>
                <path d="M16.1978,43.751 C16.1978,43.751 15.2078,43.531 14.5358,43.783 C14.1358,43.933 13.3928,44.321 13.3108,45.398 C13.1648,47.333 13.3668,49.481 13.5028,49.855 C13.8878,50.922 15.6348,50.998 16.5128,51.128" id="Fill-18" fill="#FCDCB7"></path>
                <path d="M44.9869,47.8838 C44.9869,47.8838 45.9989,47.9578 46.5689,48.3938 C46.9089,48.6518 47.5079,49.2378 47.2749,50.2928 C46.8579,52.1888 46.0449,54.1868 45.8059,54.5058 C45.1299,55.4158 44.1219,55.0858 43.2439,54.9568" id="Fill-20" fill="#FCDCB7"></path>
                <path d="M14.7584,42.9327 L15.4234,45.6437 C15.4234,45.6437 16.1154,42.2617 18.7714,41.9757 C21.4254,41.6897 32.1004,43.4557 35.2774,41.6017 C38.4524,39.7477 37.9844,38.8397 37.9844,38.8397 C37.9844,38.8397 37.1564,41.9757 36.5044,42.4597 C36.5044,42.4597 41.4784,41.5477 42.9604,40.0247 C42.9604,40.0247 44.6194,41.2377 44.8964,49.2127 C44.8964,49.2127 46.4704,48.3807 47.6534,44.2967 C48.8354,40.2127 44.5224,26.8037 33.3284,25.9287 C22.1354,25.0527 13.0454,35.5197 14.7584,42.9327" id="Fill-22" fill="#A2793E"></path>
            </g>
            <g id="Group-120" transform="translate(108.659993, 52.910936)">
                <path d="M40.0429261,78.2611938 L0.740613917,117.449076" id="Stroke-116" stroke="#8F8F8F" stroke-width="8" stroke-linecap="round" stroke-linejoin="round"></path>
                <path d="M41.9849445,13.1537853 C24.4899184,30.5973615 24.4899184,58.8808497 41.9849445,76.3255774 C59.4811254,93.7703052 87.8480358,93.7703052 105.343062,76.3255774 C122.839243,58.8808497 122.839243,30.5973615 105.343062,13.1537853 C87.8480358,-4.28979096 59.4811254,-4.28979096 41.9849445,13.1537853 Z" id="Stroke-118" stroke="#A3A3A3" stroke-width="5"></path>
            </g>
        </g>
    </g>
</svg>