<?xml version="1.0" encoding="UTF-8" standalone="no"?>
<svg width="100px" height="100px" viewBox="0 0 100 100" version="1.1" xmlns="http://www.w3.org/2000/svg" xmlns:xlink="http://www.w3.org/1999/xlink">
    <!-- Generator: Sketch 39.1 (31720) - http://www.bohemiancoding.com/sketch -->
    <title>Artboard</title>
    <desc>Created with Sketch.</desc>
    <defs>
        <circle id="path-1" cx="50" cy="50" r="50"></circle>
        <polygon id="path-3" points="29.4237056 0.826 0.29263939 0.826 0.29263939 43.6375045 29.4237056 43.6375045 29.4237056 0.826"></polygon>
        <path d="M0.627512743,1.86499576 C0.677317731,1.77513667 0.729805989,1.68610575 0.785,1.598 C1.04877317,1.17649925 1.3586047,0.801354002 1.70388932,0.475012743 L9.53227457,0.475012743 C11.4728239,2.30221468 11.9193704,5.30284341 10.452,7.648 C8.78,10.318 5.262,11.127 2.593,9.456 C1.7423664,8.92343771 1.08045962,8.20326593 0.627512743,7.38276204 L0.627512743,1.86499576 L0.627512743,1.86499576 Z" id="path-5"></path>
    </defs>
    <g id="Page-1" stroke="none" stroke-width="1" fill="none" fill-rule="evenodd">
        <g id="Artboard">
            <g id="Page-1">
                <mask id="mask-2" fill="white">
                    <use xlink:href="#path-1"></use>
                </mask>
                <use id="Mask" fill="#ACD8AF" xlink:href="#path-1"></use>
                <g mask="url(#mask-2)">
                    <g transform="translate(25.000000, 15.000000)">
                        <g id="Group-26" transform="translate(0.000000, 0.174000)">
                            <path d="M38.5699,16.1017 C37.9399,16.6957 37.3179,17.2957 36.7029,17.9007" id="Stroke-1" stroke="#FFFFFF" stroke-width="1.814"></path>
                            <path d="M33.0174,21.6965 C-5.2246,62.8835 -9.2876,126.0385 20.7184,165.3435" id="Stroke-3" stroke="#FFFFFF" stroke-width="1.814" stroke-dasharray="5.289,5.289"></path>
                            <path d="M37.1919,45.6743 C38.3929,43.6503 41.0389,35.2063 39.6749,32.2663 C39.6799,32.2603 39.6839,32.2533 39.6889,32.2463 C39.6979,32.2323 39.7069,32.2183 39.7169,32.2053 C39.9149,31.9133 40.1119,31.6183 40.3079,31.3193 C40.3709,31.2223 40.4339,31.1253 40.4969,31.0283 C40.6499,30.7913 40.8019,30.5523 40.9529,30.3113 C41.0179,30.2073 41.0839,30.1043 41.1489,29.9993 C41.3559,29.6653 41.5619,29.3273 41.7649,28.9843 C41.7669,28.9823 41.7679,28.9803 41.7689,28.9793 C41.7699,28.9763 41.7719,28.9743 41.7729,28.9723 C41.9339,28.7003 42.0889,28.4263 42.2399,28.1513 C42.2919,28.0573 42.3409,27.9613 42.3919,27.8663 C42.4899,27.6833 42.5869,27.5003 42.6809,27.3163 C42.7389,27.2013 42.7949,27.0863 42.8519,26.9713 C42.9329,26.8063 43.0139,26.6413 43.0909,26.4753 C43.1499,26.3503 43.2069,26.2253 43.2629,26.1003 C43.3339,25.9443 43.4039,25.7873 43.4719,25.6303 C43.5289,25.4993 43.5849,25.3673 43.6399,25.2353 C43.7029,25.0853 43.7639,24.9353 43.8239,24.7843 C43.8789,24.6463 43.9339,24.5083 43.9869,24.3703 C44.0419,24.2283 44.0939,24.0853 44.1469,23.9433 C44.1999,23.7973 44.2539,23.6513 44.3049,23.5063 C44.3509,23.3763 44.3939,23.2463 44.4379,23.1163 C44.4919,22.9583 44.5459,22.8003 44.5969,22.6423 C44.6259,22.5513 44.6529,22.4613 44.6809,22.3703 C44.8979,21.6803 45.0909,20.9903 45.2619,20.3033 C45.2719,20.2623 45.2829,20.2223 45.2919,20.1823 C45.3469,19.9603 45.3979,19.7383 45.4479,19.5173 C45.4599,19.4633 45.4729,19.4093 45.4849,19.3553 C45.5339,19.1353 45.5799,18.9153 45.6249,18.6953 C45.6349,18.6443 45.6459,18.5933 45.6559,18.5433 C45.7009,18.3173 45.7439,18.0913 45.7849,17.8673 C45.7919,17.8293 45.7989,17.7903 45.8049,17.7523 C45.8479,17.5153 45.8879,17.2793 45.9259,17.0443 C45.9289,17.0283 45.9309,17.0113 45.9339,16.9953 C46.8009,11.5683 46.4869,6.6723 46.1569,3.8983 C46.0169,2.7243 44.6259,1.8863 43.5339,2.3163 C40.9529,3.3353 36.5229,5.3733 32.1889,8.7123 C32.1769,8.7203 32.1659,8.7293 32.1549,8.7383 C31.9659,8.8833 31.7779,9.0313 31.5909,9.1813 C31.5609,9.2063 31.5309,9.2303 31.5009,9.2543 C31.3229,9.3963 31.1469,9.5413 30.9699,9.6893 C30.9309,9.7213 30.8919,9.7543 30.8539,9.7873 C30.6819,9.9313 30.5109,10.0763 30.3409,10.2253 C30.2999,10.2603 30.2599,10.2963 30.2189,10.3323 C30.0489,10.4823 29.8789,10.6333 29.7099,10.7873 C29.6799,10.8133 29.6509,10.8413 29.6219,10.8673 C29.0999,11.3463 28.5869,11.8463 28.0829,12.3673 C28.0189,12.4343 27.9529,12.4993 27.8889,12.5673 C27.7749,12.6883 27.6619,12.8113 27.5479,12.9343 C27.4559,13.0343 27.3629,13.1333 27.2719,13.2353 C27.1679,13.3503 27.0659,13.4673 26.9639,13.5843 C26.8639,13.6973 26.7649,13.8113 26.6669,13.9263 C26.5709,14.0393 26.4759,14.1533 26.3809,14.2683 C26.2779,14.3923 26.1759,14.5173 26.0749,14.6443 C25.9849,14.7553 25.8969,14.8673 25.8089,14.9803 C25.7029,15.1153 25.5999,15.2513 25.4959,15.3883 C25.4139,15.4983 25.3319,15.6073 25.2499,15.7183 C25.1419,15.8653 25.0359,16.0153 24.9299,16.1653 C24.8559,16.2703 24.7819,16.3743 24.7089,16.4803 C24.5929,16.6503 24.4789,16.8233 24.3659,16.9963 C24.3069,17.0863 24.2459,17.1753 24.1879,17.2673 C24.0189,17.5303 23.8539,17.7963 23.6939,18.0673 C23.6919,18.0703 23.6899,18.0733 23.6879,18.0773 C23.6859,18.0793 23.6849,18.0813 23.6839,18.0843 C23.4789,18.4283 23.2809,18.7733 23.0849,19.1173 C23.0329,19.2093 22.9819,19.3003 22.9309,19.3923 C22.7729,19.6733 22.6179,19.9543 22.4669,20.2343 C22.4339,20.2953 22.4009,20.3553 22.3689,20.4163 C22.1809,20.7673 21.9959,21.1173 21.8169,21.4673 C18.6159,21.5853 12.4319,27.9833 11.2249,30.0173 C9.8799,32.2843 10.9729,35.4363 13.6639,37.0603 L16.9349,39.0323 C16.9739,39.9453 17.0849,40.7913 17.2749,41.5533 C17.1989,41.5453 17.1379,41.5703 17.0979,41.6383 C16.5599,42.5453 16.5539,43.4633 16.9549,44.3133 C15.5619,44.4313 14.2709,45.2083 13.4829,46.4663 C10.9089,50.5783 11.4379,53.7893 11.7239,55.9223 C11.7929,56.4313 12.3979,56.7883 12.8679,56.5963 C14.8169,55.8013 19.0199,55.4533 21.5869,51.3523 C22.3209,50.1813 22.3089,48.6683 21.7339,47.3403 C22.7639,47.3583 23.6489,46.9153 24.2329,45.9313 C24.2609,45.8843 24.2639,45.8383 24.2489,45.7923 C25.0189,45.6003 25.8239,45.2993 26.6559,44.8933 L29.8829,46.8393 C32.5749,48.4623 35.8469,47.9403 37.1919,45.6743" id="Fill-7" fill-opacity="0.25" fill="#231F1F"></path>
                            <path d="M20.5143,49.9761 C17.9473,54.0771 13.5253,56.2441 11.5763,57.0401 C11.1063,57.2321 10.5013,56.8751 10.4323,56.3661 C10.1463,54.2321 9.8363,49.2011 12.4103,45.0901 C13.7083,43.0161 16.3723,42.2391 18.6103,43.5881 C20.8473,44.9371 21.7743,47.9621 20.5143,49.9761" id="Fill-9" fill="#FBAF5F"></path>
                            <path d="M19.4783,48.1006 C17.8143,50.4766 15.0993,51.6386 13.9083,52.0546 C13.6203,52.1546 13.2693,51.9226 13.2433,51.6156 C13.1383,50.3286 13.1083,47.3066 14.7763,44.9246 C15.6173,43.7226 17.2363,43.3396 18.5353,44.2166 C19.8333,45.0936 20.2953,46.9336 19.4783,48.1006" id="Fill-11" fill="#FCDB5E"></path>
                            <path d="M19.2325,42.8863 C18.2345,42.2843 16.3795,39.6633 16.0245,40.2613 C14.9775,42.0263 15.9345,43.8373 18.0165,45.0923 C20.0985,46.3483 22.1125,46.3183 23.1595,44.5543 C23.5145,43.9563 20.2305,43.4883 19.2325,42.8863" id="Fill-13" fill="#CDCCCC"></path>
                            <g id="Group-17" transform="translate(16.000000, 0.000000)">
                                <mask id="mask-4" fill="white">
                                    <use xlink:href="#path-3"></use>
                                </mask>
                                <g id="Clip-16"></g>
                                <path d="M6.6149,16.7004 C12.0999,7.4574 22.0179,2.6934 26.4619,0.9404 C27.5529,0.5094 28.9439,1.3484 29.0839,2.5214 C29.6529,7.2974 30.1809,18.3594 24.6959,27.6024 C17.4819,39.7614 8.3919,45.8894 3.3989,42.8794 C-1.5941,39.8694 -0.6001,28.8594 6.6149,16.7004" id="Fill-15" fill="#E1E1E0" mask="url(#mask-4)"></path>
                            </g>
                            <path d="M24.1973,37.1096 C22.8523,39.3756 19.5803,39.8976 16.8883,38.2746 L12.5913,35.6836 C9.8993,34.0606 8.8073,30.9076 10.1523,28.6416 C11.4973,26.3746 19.0233,18.6846 21.7153,20.3076 L26.0113,22.8986 C28.7033,24.5216 25.5423,34.8436 24.1973,37.1096" id="Fill-18" fill="#E1E1E0"></path>
                            <path d="M36.1192,44.2979 C34.7742,46.5639 31.5022,47.0859 28.8102,45.4629 L24.5132,42.8719 C21.8212,41.2489 20.7292,38.0959 22.0742,35.8299 C23.4192,33.5629 30.9452,25.8729 33.6372,27.4959 L37.9332,30.0869 C40.6252,31.7099 37.4642,42.0319 36.1192,44.2979" id="Fill-20" fill="#E1E1E0"></path>
                            <path d="M37.6495,12.0609 C35.2575,10.6179 33.1875,8.9459 31.7185,6.8799 C28.3875,9.3499 25.0605,12.5789 22.6145,16.6999 C17.0105,26.1459 14.7425,35.5649 16.3495,40.7099 C16.8115,42.1879 17.8235,42.9439 18.9375,43.6159 C20.0015,44.2569 21.0525,44.8019 22.4795,44.5649 C27.7515,43.6889 35.0185,37.1709 40.6965,27.6029 C43.1415,23.4809 44.3895,18.9989 44.9735,14.8729 C42.4735,14.5459 40.0415,13.5029 37.6495,12.0609" id="Fill-22" fill="#F5F6F6"></path>
                            <path d="M37.4513,23.6484 C35.7803,26.3174 32.2623,27.1274 29.5923,25.4564 C26.9233,23.7854 26.1133,20.2674 27.7843,17.5974 C29.4553,14.9284 32.9743,14.1184 35.6433,15.7894 C38.3123,17.4604 39.1223,20.9794 37.4513,23.6484" id="Fill-24" fill="#7BA0B7"></path>
                        </g>
                        <g id="Group-29" transform="translate(27.000000, 16.174000)">
                            <mask id="mask-6" fill="white">
                                <use xlink:href="#path-5"></use>
                            </mask>
                            <g id="Clip-28"></g>
                            <path d="M11.164,9.2035 C9.493,11.8725 5.975,12.6825 3.305,11.0115 C0.636,9.3405 -0.174,5.8225 1.497,3.1525 C3.168,0.4835 6.687,-0.3265 9.356,1.3445 C12.025,3.0155 12.835,6.5345 11.164,9.2035" id="Fill-27" fill="#97B3C5" mask="url(#mask-6)"></path>
                        </g>
                    </g>
                </g>
            </g>
        </g>
    </g>
</svg>