<svg id="Layer_1" data-name="Layer 1" xmlns="http://www.w3.org/2000/svg" viewBox="0 0 20 20"><defs><style>.cls-1{fill:#d46464;}</style></defs><title>desperado</title><path class="cls-1" d="M10,20A10,10,0,1,1,20,10,10,10,0,0,1,10,20ZM10,1.71A8.29,8.29,0,1,0,18.29,10,8.3,8.3,0,0,0,10,1.71Z"/><path class="cls-1" d="M5.64,12.38a.57.57,0,0,1-.28-1.07l1.22-.69L5.36,9.93a.57.57,0,0,1,.56-1L8,10.12a.57.57,0,0,1,0,1l-2.1,1.19A.56.56,0,0,1,5.64,12.38Z"/><path class="cls-1" d="M14.36,12.38a.56.56,0,0,1-.28-.07L12,11.11a.57.57,0,0,1,0-1l2.1-1.19a.57.57,0,0,1,.56,1l-1.22.69,1.22.69a.57.57,0,0,1-.28,1.07Z"/><path class="cls-1" d="M12.58,16a.57.57,0,0,1-.4-.17L11.29,15l-.89.89a.59.59,0,0,1-.81,0L8.71,15l-.89.89a.57.57,0,0,1-.81,0l-.76-.76a.57.57,0,0,1,.81-.81l.35.35.89-.89a.59.59,0,0,1,.81,0l.89.89.89-.89a.57.57,0,0,1,.4-.17h0a.57.57,0,0,1,.4.17l.89.89.36-.36a.57.57,0,1,1,.81.81l-.76.76A.57.57,0,0,1,12.58,16Z"/><path class="cls-1" d="M5.53,7.57a.57.57,0,0,1-.31-1.05l1.31-.84a.57.57,0,0,1,.62,1l-1.31.84A.57.57,0,0,1,5.53,7.57Z"/><path class="cls-1" d="M14.47,7.57a.57.57,0,0,1-.31-.09l-1.31-.84a.57.57,0,0,1,.62-1l1.31.84a.57.57,0,0,1-.31,1.05Z"/></svg>